<svg width="253" height="245" viewBox="0 0 253 245" fill="none" xmlns="http://www.w3.org/2000/svg">
<g clip-path="url(#clip0_9_106)">
<path d="M130.246 182.967L130.258 187.61C128.958 186.77 127.128 187.401 126.419 188.932C125.71 190.464 126.25 192.62 127.552 193.455C126.757 194.537 125.371 194.558 124.156 194.602C122.942 194.647 121.509 194.976 121.021 196.286C120.629 197.339 121.073 198.615 121.808 199.373C122.543 200.131 123.506 200.489 124.439 200.826C122.429 201.668 121.099 204.329 121.447 206.81C121.795 209.292 123.781 211.312 125.915 211.354C123.938 212.39 122.929 215.435 123.785 217.778C124.649 220.14 126.889 221.317 128.985 222.031C134.322 223.856 140.083 224.057 145.549 222.608C147.637 222.052 149.718 221.233 151.433 219.725C153.148 218.218 154.463 215.932 154.592 213.414C153.624 216.214 155.371 219.529 157.735 220.712C160.098 221.894 162.81 221.452 165.291 220.678C168.589 219.649 172.078 217.707 173.332 213.969C173.953 212.118 173.934 210.068 173.907 208.077L173.853 204.218C173.831 202.66 173.806 201.074 173.393 199.593C172.981 198.112 172.114 196.724 170.872 196.187C171.728 195.009 172.607 193.783 172.979 192.294C173.351 190.806 173.073 188.973 171.979 188.105C170.588 187 168.612 187.875 167.091 187.041C165.627 186.239 165.046 184.147 163.836 182.888C163.344 182.355 162.707 181.979 162.004 181.805C161.301 181.631 160.561 181.668 159.876 181.91C158.534 182.419 157.458 183.803 157.147 185.423C156.874 186.843 157.157 188.325 157.085 189.779C157.014 191.232 156.384 192.864 155.171 193.141C153.708 193.476 152.52 191.622 152.253 189.893C151.985 188.165 152.21 186.313 151.62 184.699C150.924 182.793 149.049 181.594 147.315 181.944C145.581 182.294 144.156 184.16 144.042 186.229C143.949 187.92 144.553 189.939 143.518 191.115C142.424 192.358 140.5 191.293 139.74 189.74C138.98 188.187 138.853 186.295 138.118 184.726C137.371 183.132 135.992 181.97 134.47 181.655C133.692 181.509 132.889 181.563 132.135 181.812C131.381 182.06 130.701 182.495 130.157 183.076" fill="#E6E6E6"/>
<path d="M162.909 184.307L158.604 184.407C157.95 184.437 157.305 184.252 156.767 183.879C156.303 183.528 156.093 183.055 156.192 182.581L157.08 178.308C157.248 177.502 158.238 176.897 159.434 176.869L161.812 176.814C163.008 176.787 164.018 177.346 164.214 178.144L165.254 182.372C165.369 182.841 165.176 183.323 164.725 183.696C164.202 184.093 163.564 184.308 162.909 184.307Z" fill="#3F3D56"/>
<path d="M160.139 118.736C157.521 118.799 155.481 123.339 155.511 125.115L155.569 128.33L165.046 128.111L164.989 124.896C164.957 123.12 162.756 118.678 160.139 118.736Z" fill="#3F3D56"/>
<path d="M122.136 147.81C121.998 147.749 121.877 147.656 121.782 147.537C121.688 147.419 121.623 147.279 121.594 147.13C121.565 146.981 121.573 146.827 121.615 146.681C121.658 146.535 121.735 146.402 121.84 146.292C121.926 146.202 122.028 146.13 122.141 146.08C122.255 146.03 122.377 146.002 122.5 146L171.445 144.87C171.568 144.867 171.691 144.888 171.806 144.933C171.92 144.978 172.025 145.045 172.114 145.131C172.203 145.216 172.274 145.319 172.323 145.432C172.373 145.546 172.399 145.668 172.401 145.792C172.405 146.042 172.311 146.284 172.138 146.465C171.965 146.646 171.727 146.751 171.478 146.757L171.478 146.757L122.534 147.888C122.397 147.891 122.261 147.865 122.136 147.81Z" fill="#3F3D56"/>
<path d="M167.358 131.162L153.367 131.486L154.211 178.939L168.202 178.616L167.358 131.162Z" fill="#E6E6E6"/>
<path d="M145.652 62.3433C143.035 62.4059 140.994 66.9466 141.025 68.7224L141.082 71.9372L150.56 71.7183L150.503 68.5035C150.47 66.7277 148.27 62.285 145.652 62.3433Z" fill="#3F3D56"/>
<path d="M150.114 184.09L145.809 184.189C145.155 184.22 144.51 184.035 143.972 183.662C143.508 183.311 143.298 182.837 143.397 182.364L144.285 178.091C144.453 177.285 145.443 176.68 146.639 176.652L149.016 176.597C150.213 176.569 151.223 177.128 151.419 177.926L152.459 182.154C152.574 182.623 152.381 183.106 151.93 183.478C151.406 183.876 150.769 184.09 150.114 184.09Z" fill="#3F3D56"/>
<path d="M136.724 184.744L132.419 184.844C131.765 184.874 131.12 184.689 130.582 184.316C130.118 183.965 129.908 183.492 130.007 183.018L130.896 178.745C131.063 177.939 132.053 177.334 133.249 177.306L135.627 177.251C136.823 177.224 137.833 177.783 138.029 178.58L139.069 182.808C139.184 183.277 138.992 183.76 138.54 184.132C138.017 184.53 137.379 184.745 136.724 184.744Z" fill="#3F3D56"/>
<path d="M153.015 82.8416L139.025 83.1648L140.73 179.087L154.721 178.763L153.015 82.8416Z" fill="#E6E6E6"/>
<path d="M146.968 129.242L146.936 125.784L147.838 125.766L147.871 129.212L148.202 179.443L147.299 179.464" fill="#3F3D56"/>
<path d="M162.707 133.305L162.674 129.847L163.577 129.829L163.61 133.275L163.94 183.506L163.038 183.527" fill="#3F3D56"/>
<path d="M155.684 91.6322L136.727 92.07C136.416 90.0617 136.934 80.6991 138.661 78.6132L139.153 76.1161L152.242 75.8138L152.903 78.2528C154.766 79.8681 155.644 89.2626 155.684 91.6322Z" fill="#E6E6E6"/>
<path d="M152.653 76.1106L139.145 76.4226C138.647 76.4341 138.238 76.1693 138.232 75.8311C138.231 75.7823 138.239 75.7338 138.254 75.6876L140.415 69.2048C140.507 68.9272 140.867 68.7247 141.284 68.715L150.242 68.5081C150.659 68.4985 151.026 68.6843 151.128 68.9574L153.517 75.3351C153.639 75.6613 153.346 75.9988 152.863 76.0889C152.794 76.1018 152.723 76.109 152.653 76.1106Z" fill="#E6E6E6"/>
<path d="M139.97 128.768C139.848 128.715 139.734 128.648 139.628 128.567C139.478 128.459 139.353 128.318 139.266 128.154C139.178 127.991 139.128 127.809 139.121 127.622L138.804 109.766C138.791 109.027 139.517 108.409 140.423 108.388L152.515 108.109C153.421 108.088 154.168 108.672 154.181 109.411L154.499 127.267C154.498 127.454 154.456 127.638 154.374 127.805C154.292 127.973 154.173 128.12 154.026 128.234C153.7 128.497 153.296 128.642 152.88 128.646L140.788 128.925C140.507 128.933 140.228 128.879 139.97 128.768Z" fill="#3F3D56"/>
<path d="M140.352 131.618L126.362 131.941L127.206 179.395L141.196 179.072L140.352 131.618Z" fill="#E6E6E6"/>
<path d="M148.229 74.941L144.127 75.0358C143.335 75.0541 142.674 74.1525 142.654 73.0262C142.634 71.9 143.262 70.9686 144.054 70.9504L148.157 70.8556C148.949 70.8373 149.609 71.7389 149.629 72.8651C149.649 73.9914 149.021 74.9227 148.229 74.941Z" fill="#3F3D56"/>
<path d="M133.406 119.186C130.789 119.248 128.748 123.789 128.779 125.565L128.836 128.779L138.314 128.561L138.257 125.346C138.224 123.57 136.024 119.127 133.406 119.186Z" fill="#3F3D56"/>
<path d="M101.364 94.231C100.372 94.408 100.126 92.8392 101.123 92.6915C102.116 92.5145 102.362 94.0834 101.364 94.231Z" fill="#E6E6E6"/>
<path d="M188.869 111.746C187.876 111.923 187.631 110.354 188.628 110.206C189.62 110.029 189.866 111.598 188.869 111.746Z" fill="#E6E6E6"/>
<path d="M128.346 101.81C127.353 101.987 127.107 100.418 128.104 100.27C129.097 100.093 129.343 101.662 128.346 101.81Z" fill="#E6E6E6"/>
<path d="M81.8466 138.589C80.8541 138.766 80.6082 137.197 81.6055 137.05C82.598 136.873 82.8438 138.442 81.8466 138.589Z" fill="#E6E6E6"/>
<path d="M164.984 55.6834C163.991 55.8604 163.745 54.2915 164.742 54.1439C165.735 53.9669 165.981 55.5357 164.984 55.6834Z" fill="#E6E6E6"/>
<path d="M116.908 62.6725C115.916 62.8495 115.67 61.2806 116.667 61.133C117.659 60.956 117.905 62.5249 116.908 62.6725Z" fill="#E6E6E6"/>
<path d="M174.108 79.7727L173.668 79.4505L173.991 79.0064L173.697 78.7916L173.374 79.2357L172.934 78.9137L172.719 79.2096L173.159 79.5318L172.836 79.9758L173.13 80.1905L173.453 79.7465L173.893 80.0687L174.108 79.7727Z" fill="#E6E6E6"/>
<path d="M76.7142 85.7579L76.2741 85.4356L76.5968 84.9917L76.3034 84.7769L75.9804 85.2208L75.54 84.8987L75.3247 85.1947L75.7651 85.517L75.4422 85.9611L75.7358 86.1757L76.0587 85.7318L76.499 86.0538L76.7142 85.7579Z" fill="#E6E6E6"/>
<path d="M167.516 150.624C167.027 150.634 166.554 150.45 166.202 150.11C165.85 149.771 165.647 149.304 165.638 148.813L165.545 143.581C165.537 143.09 165.723 142.615 166.063 142.26C166.403 141.905 166.868 141.699 167.357 141.688C167.846 141.677 168.318 141.861 168.67 142.2C169.022 142.539 169.225 143.005 169.234 143.496L169.327 148.728C169.335 149.219 169.149 149.695 168.81 150.05C168.47 150.405 168.005 150.612 167.516 150.624Z" fill="#3F3D56"/>
<path d="M126.353 151.591C125.864 151.602 125.391 151.418 125.039 151.078C124.688 150.739 124.485 150.272 124.475 149.781L124.382 144.549C124.374 144.058 124.56 143.583 124.9 143.228C125.24 142.873 125.705 142.667 126.194 142.656C126.683 142.645 127.155 142.829 127.507 143.168C127.859 143.507 128.062 143.973 128.071 144.464L128.164 149.696C128.172 150.187 127.986 150.663 127.647 151.018C127.307 151.373 126.842 151.58 126.353 151.591Z" fill="#3F3D56"/>
<path d="M168.605 139.761L152.381 140.136C152.115 138.417 152.559 130.404 154.036 128.619L155.325 126.462L165.105 126.028L166.225 128.311C169.109 128.56 170.042 136.441 168.605 139.761Z" fill="#E6E6E6"/>
<path d="M162.551 136.576L158.448 136.671C157.656 136.69 156.991 135.493 156.964 134.004C156.938 132.515 157.56 131.288 158.352 131.27L162.455 131.175C163.247 131.157 163.912 132.353 163.939 133.843C163.965 135.332 163.343 136.558 162.551 136.576Z" fill="#3F3D56"/>
<path d="M130.091 132.071L130.059 128.614L130.961 128.595L130.994 132.042L131.325 182.273L130.422 182.294" fill="#3F3D56"/>
<path d="M141.873 140.211L125.649 140.586C124.118 138.68 124.056 130.593 127.304 129.069L128.593 126.911L138.372 126.477L139.493 128.76C141.088 130.143 141.839 138.183 141.873 140.211Z" fill="#E6E6E6"/>
<path d="M135.806 136.304L131.703 136.399C130.911 136.417 130.248 135.382 130.225 134.092C130.202 132.802 130.828 131.737 131.62 131.719L135.723 131.624C136.514 131.606 137.177 132.641 137.2 133.931C137.223 135.221 136.597 136.286 135.806 136.304Z" fill="#3F3D56"/>
<path opacity="0.3" d="M163.879 114.844L192.372 83.7817L162.854 113.871C162.748 113.927 162.658 114.007 162.59 114.105C162.521 114.203 162.477 114.316 162.461 114.434C162.445 114.552 162.457 114.673 162.496 114.785C162.535 114.898 162.6 114.999 162.686 115.08C162.773 115.162 162.877 115.222 162.991 115.255C163.105 115.288 163.225 115.293 163.342 115.27C163.458 115.247 163.568 115.196 163.661 115.122C163.755 115.048 163.83 114.953 163.879 114.844L163.879 114.844Z" fill="#F0F0F0"/>
<path d="M195.064 146.146C196.237 146.662 197.609 146.123 198.129 144.942C198.648 143.761 198.119 142.385 196.946 141.869C195.773 141.353 194.401 141.892 193.881 143.073C193.362 144.254 193.891 145.63 195.064 146.146Z" fill="#FF6584"/>
<path d="M183.061 210.028C184.234 210.544 185.606 210.005 186.125 208.824C186.645 207.643 186.116 206.268 184.943 205.752C183.77 205.235 182.398 205.775 181.878 206.956C181.359 208.137 181.888 209.512 183.061 210.028Z" fill="#F2F2F2"/>
<path d="M104.906 191.181C107.192 192.187 109.867 191.136 110.881 188.834C111.894 186.531 110.861 183.849 108.575 182.843C106.288 181.837 103.613 182.888 102.6 185.19C101.587 187.493 102.619 190.175 104.906 191.181Z" fill="#F2F2F2"/>
<path d="M97.6355 122.118C98.8083 122.635 100.18 122.095 100.7 120.914C101.22 119.733 100.69 118.358 99.5173 117.842C98.3445 117.325 96.9724 117.865 96.4528 119.046C95.9331 120.227 96.4626 121.602 97.6355 122.118Z" fill="#3F3D56"/>
<path d="M167.805 156.315L175.917 162.735L176.646 176.323L166.98 172.518L167.805 156.315Z" fill="#E6E6E6"/>
<path d="M153.707 130.986L156.514 138.286L157.053 171.806L153.792 172.82L153.707 130.986Z" fill="#CCCCCC"/>
<path d="M140.716 130.767L137.955 138.114L137.633 171.641L140.9 172.6L140.716 130.767Z" fill="#CCCCCC"/>
<path d="M127.636 159.597L119.123 165.559L117.515 179.082L127.41 175.817L127.636 159.597Z" fill="#E6E6E6"/>
<g clip-path="url(#clip1_9_106)">
<path d="M7.84126 138.865C7.7814 138.803 7.7376 138.727 7.71359 138.643C7.68957 138.56 7.68605 138.472 7.70332 138.387C7.72059 138.302 7.75814 138.222 7.81278 138.154C7.86743 138.086 7.93755 138.032 8.01721 137.997C8.08217 137.968 8.15213 137.952 8.22303 137.951C8.29394 137.949 8.36438 137.961 8.43027 137.987L34.5827 148.112C34.6487 148.137 34.7089 148.175 34.7598 148.224C34.8108 148.273 34.8516 148.332 34.8799 148.396C34.9081 148.461 34.9233 148.531 34.9245 148.602C34.9257 148.673 34.913 148.743 34.887 148.809C34.8344 148.943 34.7311 149.05 34.5999 149.108C34.4687 149.166 34.3202 149.169 34.187 149.118L34.1869 149.118L8.03447 138.994C7.96136 138.966 7.89541 138.922 7.84126 138.865Z" fill="#3F3D56"/>
<path d="M8.58533 105.957C8.02123 105.833 8.2348 104.949 8.79495 105.089C9.35901 105.213 9.14545 106.097 8.58533 105.957Z" fill="#E6E6E6"/>
<path d="M51.0617 134.397C50.4976 134.274 50.7111 133.389 51.2713 133.53C51.8353 133.653 51.6218 134.538 51.0617 134.397Z" fill="#E6E6E6"/>
<path d="M21.2052 115.879C20.6411 115.756 20.8547 114.871 21.4148 115.012C21.9789 115.135 21.7653 116.02 21.2052 115.879Z" fill="#E6E6E6"/>
<path d="M50.7019 99.4926C50.1378 99.3688 50.3514 98.4846 50.9115 98.6249C51.4756 98.7487 51.262 99.6329 50.7019 99.4926Z" fill="#E6E6E6"/>
<path d="M23.7258 92.6595C23.1617 92.5357 23.3753 91.6515 23.9355 91.7918C24.4995 91.9156 24.286 92.7998 23.7258 92.6595Z" fill="#E6E6E6"/>
<path d="M50.2538 114.241L50.0914 113.974L50.3596 113.81L50.2513 113.632L49.983 113.796L49.8206 113.529L49.6418 113.639L49.8042 113.906L49.5361 114.07L49.6444 114.248L49.9126 114.084L50.075 114.351L50.2538 114.241Z" fill="#E6E6E6"/>
<path opacity="0.3" d="M37.1565 130.563L59.0417 120.364L36.8269 129.823C36.759 129.829 36.6935 129.852 36.6359 129.889C36.5783 129.926 36.5302 129.976 36.4957 130.035C36.4611 130.094 36.4411 130.16 36.4372 130.228C36.4333 130.296 36.4457 130.364 36.4734 130.426C36.5011 130.488 36.5432 130.543 36.5963 130.585C36.6494 130.628 36.7119 130.657 36.7787 130.67C36.8455 130.683 36.9146 130.681 36.9803 130.662C37.046 130.643 37.1064 130.609 37.1565 130.563L37.1565 130.563Z" fill="#F0F0F0"/>
<path d="M46.8042 153.962C47.3119 154.492 48.1562 154.507 48.6899 153.996C49.2237 153.484 49.2448 152.64 48.7371 152.11C48.2294 151.58 47.3852 151.565 46.8514 152.076C46.3176 152.587 46.2965 153.431 46.8042 153.962Z" fill="#FF6584"/>
<path d="M26.4561 185.143C26.9638 185.673 27.8081 185.688 28.3419 185.177C28.8757 184.666 28.8968 183.822 28.3891 183.292C27.8814 182.761 27.0371 182.746 26.5034 183.257C25.9696 183.769 25.9484 184.613 26.4561 185.143Z" fill="#F2F2F2"/>
<path d="M0.502166 119.9C1.00986 120.43 1.85415 120.445 2.38792 119.934C2.9217 119.423 2.94284 118.579 2.43514 118.049C1.92744 117.519 1.08316 117.503 0.549385 118.015C0.0156102 118.526 -0.00553178 119.37 0.502166 119.9Z" fill="#3F3D56"/>
</g>
</g>
<defs>
<clipPath id="clip0_9_106">
<rect width="195.632" height="180.36" fill="white" transform="translate(73.5327 0.651306) rotate(23.7496)"/>
</clipPath>
<clipPath id="clip1_9_106">
<rect width="112.061" height="103.313" fill="white" transform="translate(14.3561 50.331) rotate(46.2355)"/>
</clipPath>
</defs>
</svg>
