<svg width="49" height="40" viewBox="0 0 49 40" fill="none" xmlns="http://www.w3.org/2000/svg">
<path d="M46.7463 29.1641C46.9454 28.0625 46.9454 26.9375 46.7463 25.8359L48.7219 24.6719C48.9516 24.5391 49.0511 24.2656 48.9745 24.0078C48.4615 22.3203 47.581 20.7891 46.4324 19.5234C46.2563 19.3281 45.973 19.2812 45.7433 19.4141L43.7677 20.5781C42.9331 19.8516 41.976 19.2891 40.9423 18.9141V16.5859C40.9423 16.3203 40.7585 16.0859 40.5058 16.0312C38.7983 15.6406 37.0602 15.6562 35.4369 16.0312C35.1842 16.0859 35.0004 16.3203 35.0004 16.5859V18.9141C33.9667 19.2891 33.0096 19.8516 32.175 20.5781L30.1994 19.4141C29.9774 19.2812 29.6864 19.3281 29.5103 19.5234C28.3617 20.7891 27.4812 22.3203 26.9682 24.0078C26.8916 24.2656 26.9988 24.5391 27.2208 24.6719L29.1964 25.8359C28.9973 26.9375 28.9973 28.0625 29.1964 29.1641L27.2208 30.3281C26.9911 30.4609 26.8916 30.7344 26.9682 30.9922C27.4812 32.6797 28.3617 34.2031 29.5103 35.4766C29.6864 35.6719 29.9697 35.7188 30.1994 35.5859L32.175 34.4219C33.0096 35.1484 33.9667 35.7109 35.0004 36.0859V38.4141C35.0004 38.6797 35.1842 38.9141 35.4369 38.9688C37.1444 39.3594 38.8825 39.3438 40.5058 38.9688C40.7585 38.9141 40.9423 38.6797 40.9423 38.4141V36.0859C41.976 35.7109 42.9331 35.1484 43.7677 34.4219L45.7433 35.5859C45.9653 35.7188 46.2563 35.6719 46.4324 35.4766C47.581 34.2109 48.4615 32.6797 48.9745 30.9922C49.0511 30.7344 48.9439 30.4609 48.7219 30.3281L46.7463 29.1641ZM37.979 31.2891C35.9269 31.2891 34.2653 29.5859 34.2653 27.5C34.2653 25.4141 35.9346 23.7109 37.979 23.7109C40.0234 23.7109 41.6927 25.4141 41.6927 27.5C41.6927 29.5859 40.0311 31.2891 37.979 31.2891ZM17.1518 20C22.5653 20 26.9528 15.5234 26.9528 10C26.9528 4.47656 22.5653 0 17.1518 0C11.7383 0 7.35078 4.47656 7.35078 10C7.35078 15.5234 11.7383 20 17.1518 20ZM32.5578 37.6953C32.3817 37.6016 32.2056 37.4922 32.0371 37.3906L31.4322 37.75C30.9728 38.0156 30.4521 38.1641 29.9314 38.1641C29.0968 38.1641 28.2928 37.8047 27.7185 37.1797C26.3173 35.6328 25.2453 33.75 24.6404 31.7422C24.2193 30.3594 24.7859 28.8984 26.011 28.1719L26.6159 27.8125C26.6083 27.6094 26.6083 27.4062 26.6159 27.2031L26.011 26.8438C24.7859 26.125 24.2193 24.6562 24.6404 23.2734C24.7093 23.0469 24.8089 22.8203 24.8854 22.5938C24.5945 22.5703 24.3112 22.5 24.0125 22.5H22.7338C21.0339 23.2969 19.1426 23.75 17.1518 23.75C15.161 23.75 13.2773 23.2969 11.5698 22.5H10.2911C4.60955 22.5 0 27.2031 0 33V36.25C0 38.3203 1.64627 40 3.67539 40H30.6282C31.4016 40 32.1214 39.75 32.711 39.3359C32.6191 39.0391 32.5578 38.7344 32.5578 38.4141V37.6953Z" fill="#948FF1"/>
</svg>
