<svg width="23" height="19" viewBox="0 0 23 19" fill="none" xmlns="http://www.w3.org/2000/svg">
<path d="M11.1951 4.91723L3.83364 10.9319V17.4234C3.83364 17.5915 3.90094 17.7527 4.02075 17.8715C4.14055 17.9904 4.30305 18.0571 4.47248 18.0571L8.94675 18.0456C9.11563 18.0448 9.2773 17.9777 9.39641 17.8589C9.51553 17.7401 9.5824 17.5794 9.58239 17.4119V13.6209C9.58239 13.4528 9.6497 13.2916 9.76951 13.1728C9.88931 13.0539 10.0518 12.9872 10.2212 12.9872H12.7766C12.946 12.9872 13.1085 13.0539 13.2283 13.1728C13.3481 13.2916 13.4154 13.4528 13.4154 13.6209V17.4091C13.4152 17.4925 13.4315 17.5751 13.4635 17.6523C13.4955 17.7294 13.5425 17.7995 13.6018 17.8585C13.6612 17.9176 13.7317 17.9644 13.8093 17.9964C13.887 18.0284 13.9702 18.0449 14.0543 18.0448L18.5269 18.0571C18.6964 18.0571 18.8589 17.9904 18.9787 17.8715C19.0985 17.7527 19.1658 17.5915 19.1658 17.4234V10.9275L11.806 4.91723C11.7194 4.84805 11.6116 4.81032 11.5005 4.81032C11.3894 4.81032 11.2816 4.84805 11.1951 4.91723ZM22.8231 9.00528L19.4852 6.27582V0.789578C19.4852 0.663519 19.4347 0.542622 19.3449 0.453485C19.255 0.364347 19.1332 0.31427 19.0061 0.31427H16.7701C16.6431 0.31427 16.5212 0.364347 16.4313 0.453485C16.3415 0.542622 16.291 0.663519 16.291 0.789578V3.66559L12.7163 0.747989C12.3733 0.467945 11.9428 0.31483 11.4985 0.31483C11.0542 0.31483 10.6238 0.467945 10.2807 0.747989L0.173884 9.00528C0.125367 9.04506 0.0852268 9.09394 0.0557571 9.14911C0.0262874 9.20429 0.00806566 9.26468 0.00213299 9.32685C-0.00379968 9.38901 0.00267301 9.45172 0.0211812 9.51141C0.0396894 9.57109 0.0698704 9.62657 0.11 9.67467L1.12815 10.9026C1.16817 10.9508 1.2174 10.9908 1.27301 11.0202C1.32862 11.0496 1.38952 11.0678 1.45224 11.0738C1.51495 11.0798 1.57824 11.0734 1.63849 11.0551C1.69873 11.0368 1.75475 11.0069 1.80332 10.9671L11.1951 3.29326C11.2816 3.22408 11.3894 3.18635 11.5005 3.18635C11.6116 3.18635 11.7194 3.22408 11.806 3.29326L21.1981 10.9671C21.2466 11.0069 21.3025 11.0369 21.3627 11.0552C21.4228 11.0736 21.4861 11.08 21.5487 11.0741C21.6114 11.0682 21.6723 11.0502 21.7279 11.0209C21.7835 10.9917 21.8328 10.9519 21.8729 10.9037L22.891 9.67586C22.9311 9.62748 22.9612 9.57171 22.9795 9.51177C22.9977 9.45183 23.0039 9.38889 22.9976 9.32657C22.9913 9.26426 22.9726 9.20379 22.9427 9.14865C22.9128 9.09352 22.8721 9.04479 22.8231 9.00528Z" fill="#BDBDBD"/>
</svg>
