<svg width="38" height="43" viewBox="0 0 38 43" fill="none" xmlns="http://www.w3.org/2000/svg">
<path d="M29.8571 26.875C27.9395 26.875 26.177 27.5317 24.7857 28.6299L16.0927 23.2503C16.3501 22.0973 16.3501 20.9026 16.0927 19.7496L24.7857 14.3701C26.177 15.4683 27.9395 16.125 29.8571 16.125C34.3543 16.125 38 12.5153 38 8.0625C38 3.60973 34.3543 0 29.8571 0C25.36 0 21.7143 3.60973 21.7143 8.0625C21.7143 8.66366 21.7813 9.2492 21.9073 9.81282L13.2143 15.1924C11.823 14.0942 10.0605 13.4375 8.14286 13.4375C3.64571 13.4375 0 17.0472 0 21.5C0 25.9528 3.64571 29.5625 8.14286 29.5625C10.0605 29.5625 11.823 28.9058 13.2143 27.8076L21.9073 33.1872C21.7788 33.7619 21.7141 34.3488 21.7143 34.9375C21.7143 39.3903 25.36 43 29.8571 43C34.3543 43 38 39.3903 38 34.9375C38 30.4847 34.3543 26.875 29.8571 26.875Z" fill="#948FF1"/>
</svg>
