<svg width="32" height="17" viewBox="0 0 32 17" fill="none" xmlns="http://www.w3.org/2000/svg">
<path d="M30.1849 3.94904L16.8002 0.155058C16.0709 -0.0516859 15.2839 -0.0516859 14.5551 0.155058L1.16991 3.94904C0.0403677 4.26912 0.0403677 5.64726 1.16991 5.96734L3.50338 6.62874C2.99139 7.21267 2.67661 7.92498 2.64542 8.70503C2.18334 8.9494 1.858 9.39034 1.858 9.91671C1.858 10.3939 2.13055 10.7955 2.52306 11.0523L1.29803 16.1381C1.19151 16.5803 1.55618 17 2.04706 17H4.73945C5.2308 17 5.59548 16.5803 5.48896 16.1381L4.26392 11.0523C4.65643 10.7955 4.92898 10.3939 4.92898 9.91671C4.92898 9.4045 4.61853 8.97596 4.17755 8.72716C4.21402 8.06222 4.58254 7.47431 5.17034 7.10155L14.5546 9.76177C14.9893 9.88484 15.8233 10.0385 16.7998 9.76177L30.1849 5.96778C31.3149 5.64726 31.3149 4.26956 30.1849 3.94904ZM17.2508 11.116C15.8818 11.5038 14.7153 11.2895 14.1035 11.116L7.14489 9.14375L6.46447 14.1667C6.46447 15.7316 10.5892 17 15.6774 17C20.7656 17 24.8904 15.7316 24.8904 14.1667L24.2099 9.14331L17.2508 11.116Z" fill="#BABABA" fill-opacity="0.95"/>
</svg>
