<svg width="32" height="14" viewBox="0 0 32 14" fill="none" xmlns="http://www.w3.org/2000/svg">
<path d="M23.4867 7.14204e-08H8.12963C6.86387 -0.000164781 5.6177 0.285055 4.50207 0.830268C3.38643 1.37548 2.43596 2.16377 1.73526 3.12495C1.03456 4.08613 0.605379 5.19038 0.485925 6.33939C0.366471 7.4884 0.560451 8.64651 1.0506 9.71063C1.54074 10.7747 2.31184 11.7118 3.29524 12.4385C4.27865 13.1651 5.44384 13.6588 6.6871 13.8755C7.93035 14.0922 9.21307 14.0253 10.4211 13.6806C11.6291 13.3359 12.7249 12.7242 13.6109 11.9H18.0021C18.888 12.7241 19.9837 13.3358 21.1915 13.6805C22.3994 14.0252 23.6819 14.0922 24.9251 13.8756C26.1682 13.6591 27.3333 13.1656 28.3168 12.4392C29.3002 11.7128 30.0714 10.7759 30.5618 9.71204C31.0521 8.64814 31.2464 7.4902 31.1273 6.34129C31.0082 5.19238 30.5794 4.08814 29.8791 3.12686C29.1789 2.16558 28.2288 1.37707 27.1135 0.831534C25.9982 0.285993 24.7523 0.000340164 23.4867 7.14204e-08ZM12.3519 7.525C12.3519 7.66424 12.2912 7.79777 12.1833 7.89623C12.0753 7.99469 11.9288 8.05 11.7761 8.05H9.28116V10.325C9.28116 10.4642 9.2205 10.5978 9.11252 10.6962C9.00454 10.7947 8.8581 10.85 8.70539 10.85H7.55386C7.40116 10.85 7.25471 10.7947 7.14674 10.6962C7.03876 10.5978 6.9781 10.4642 6.9781 10.325V8.05H4.48312C4.33041 8.05 4.18396 7.99469 4.07599 7.89623C3.96801 7.79777 3.90735 7.66424 3.90735 7.525V6.475C3.90735 6.33576 3.96801 6.20223 4.07599 6.10377C4.18396 6.00531 4.33041 5.95 4.48312 5.95H6.9781V3.675C6.9781 3.53576 7.03876 3.40223 7.14674 3.30377C7.25471 3.20531 7.40116 3.15 7.55386 3.15H8.70539C8.8581 3.15 9.00454 3.20531 9.11252 3.30377C9.2205 3.40223 9.28116 3.53576 9.28116 3.675V5.95H11.7761C11.9288 5.95 12.0753 6.00531 12.1833 6.10377C12.2912 6.20223 12.3519 6.33576 12.3519 6.475V7.525ZM22.7157 10.85C22.3361 10.85 21.965 10.7474 21.6494 10.5551C21.3338 10.3628 21.0878 10.0895 20.9426 9.7697C20.7973 9.44993 20.7593 9.09806 20.8333 8.75859C20.9074 8.41912 21.0902 8.1073 21.3586 7.86256C21.627 7.61782 21.969 7.45115 22.3413 7.38363C22.7136 7.3161 23.0994 7.35076 23.4501 7.48321C23.8008 7.61566 24.1006 7.83997 24.3115 8.12775C24.5223 8.41554 24.6349 8.75388 24.6349 9.1C24.6349 9.56413 24.4327 10.0092 24.0728 10.3374C23.7129 10.6656 23.2247 10.85 22.7157 10.85ZM25.7864 6.65C25.4068 6.65 25.0358 6.54736 24.7202 6.35507C24.4046 6.16278 24.1586 5.88947 24.0133 5.5697C23.868 5.24993 23.83 4.89806 23.9041 4.55859C23.9781 4.21912 24.1609 3.90731 24.4293 3.66256C24.6977 3.41782 25.0397 3.25115 25.412 3.18363C25.7843 3.1161 26.1702 3.15076 26.5209 3.28321C26.8716 3.41566 27.1713 3.63997 27.3822 3.92775C27.5931 4.21554 27.7056 4.55388 27.7056 4.9C27.7056 5.36413 27.5034 5.80925 27.1435 6.13744C26.7836 6.46563 26.2954 6.65 25.7864 6.65Z" fill="#BDBDBD"/>
</svg>
