<svg width="18" height="19" viewBox="0 0 18 19" fill="none" xmlns="http://www.w3.org/2000/svg">
<path d="M17.5484 13.3594V0.890625C17.5484 0.39707 17.1293 0 16.6083 0H3.76037C1.68433 0 0 1.5957 0 3.5625V15.4375C0 17.4043 1.68433 19 3.76037 19H16.6083C17.1293 19 17.5484 18.6029 17.5484 18.1094V17.5156C17.5484 17.2373 17.4113 16.985 17.1998 16.8217C17.0353 16.2502 17.0353 14.6211 17.1998 14.0496C17.4113 13.89 17.5484 13.6377 17.5484 13.3594ZM5.01382 4.97266C5.01382 4.8502 5.11959 4.75 5.24885 4.75H13.553C13.6823 4.75 13.788 4.8502 13.788 4.97266V5.71484C13.788 5.8373 13.6823 5.9375 13.553 5.9375H5.24885C5.11959 5.9375 5.01382 5.8373 5.01382 5.71484V4.97266ZM5.01382 7.34766C5.01382 7.2252 5.11959 7.125 5.24885 7.125H13.553C13.6823 7.125 13.788 7.2252 13.788 7.34766V8.08984C13.788 8.21231 13.6823 8.3125 13.553 8.3125H5.24885C5.11959 8.3125 5.01382 8.21231 5.01382 8.08984V7.34766ZM14.9396 16.625H3.76037C3.06705 16.625 2.50691 16.0943 2.50691 15.4375C2.50691 14.7844 3.07097 14.25 3.76037 14.25H14.9396C14.8652 14.8846 14.8652 15.9904 14.9396 16.625Z" fill="#BABABA" fill-opacity="0.95"/>
</svg>
