<svg width="41" height="34" viewBox="0 0 41 34" fill="none" xmlns="http://www.w3.org/2000/svg">
<path d="M40.4326 18.504L26.7652 33.3765C25.5449 34.7045 23.4297 33.7749 23.4297 31.8716V23.373H12.3657C11.2837 23.373 10.4132 22.4258 10.4132 21.2484V12.7498C10.4132 11.5724 11.2837 10.6251 12.3657 10.6251H23.4297V2.12653C23.4297 0.232053 25.5368 -0.706333 26.7652 0.621572L40.4326 15.4941C41.1891 16.3263 41.1891 17.6719 40.4326 18.504ZM15.6198 32.9339V29.3928C15.6198 28.8086 15.1805 28.3305 14.6436 28.3305H7.80991C6.36996 28.3305 5.20661 27.0646 5.20661 25.4976V8.50047C5.20661 6.93354 6.36996 5.66761 7.80991 5.66761H14.6436C15.1805 5.66761 15.6198 5.18956 15.6198 4.60528V1.06421C15.6198 0.479929 15.1805 0.00188285 14.6436 0.00188285H7.80991C3.49819 0.00188285 0 3.80854 0 8.50047V25.4976C0 30.1896 3.49819 33.9962 7.80991 33.9962H14.6436C15.1805 33.9962 15.6198 33.5182 15.6198 32.9339Z" fill="#948FF1"/>
</svg>
