<svg width="16" height="19" viewBox="0 0 16 19" fill="none" xmlns="http://www.w3.org/2000/svg">
<path d="M14.6891 7.125H13.9912C13.6056 7.125 13.2932 7.3907 13.2932 7.71875V9.5C13.2932 12.2758 10.4801 14.5031 7.15173 14.227C4.25088 13.9862 2.12607 11.7678 2.12607 9.28848V7.71875C2.12607 7.3907 1.81374 7.125 1.42812 7.125H0.730174C0.344558 7.125 0.0322266 7.3907 0.0322266 7.71875V9.20906C0.0322266 12.5355 2.82271 15.501 6.66273 15.9515V17.2188H4.21991C3.83429 17.2188 3.52196 17.4845 3.52196 17.8125V18.4062C3.52196 18.7343 3.83429 19 4.21991 19H11.1994C11.585 19 11.8973 18.7343 11.8973 18.4062V17.8125C11.8973 17.4845 11.585 17.2188 11.1994 17.2188H8.75657V15.9656C12.4954 15.5292 15.3871 12.799 15.3871 9.5V7.71875C15.3871 7.3907 15.0747 7.125 14.6891 7.125ZM7.70965 13.0625C10.0225 13.0625 11.8973 11.4675 11.8973 9.5H8.17509C7.91816 9.5 7.70965 9.36715 7.70965 9.20312V8.60938C7.70965 8.44535 7.91816 8.3125 8.17509 8.3125H11.8973V7.125H8.17509C7.91816 7.125 7.70965 6.99215 7.70965 6.82812V6.23438C7.70965 6.07035 7.91816 5.9375 8.17509 5.9375H11.8973V4.75H8.17509C7.91816 4.75 7.70965 4.61715 7.70965 4.45312V3.85938C7.70965 3.69535 7.91816 3.5625 8.17509 3.5625H11.8973C11.8973 1.59496 10.0225 0 7.70965 0C5.39682 0 3.52196 1.59496 3.52196 3.5625V9.5C3.52196 11.4675 5.39682 13.0625 7.70965 13.0625Z" fill="#BABABA" fill-opacity="0.95"/>
</svg>
